<svg width="226" height="163" viewBox="0 0 226 163" fill="none" xmlns="http://www.w3.org/2000/svg">
<g filter="url(#filter0_f_203_43)">
<path d="M89.4726 130.453C89.4726 130.453 43.2071 107.723 33.3714 63.7102C23.5357 19.6971 33.3714 30.0628 33.3714 30.0628L197 55.4362C192.247 100.769 184.405 118.869 155.774 130.453C123.171 138.433 89.4726 130.453 89.4726 130.453Z" fill="#C4F4FE"/>
</g>
<g filter="url(#filter1_d_203_43)">
<path d="M126.477 28.2243C128.577 25.6282 132.122 24.6425 135.339 25.7599L181.801 41.8951C185.18 43.0686 187.416 46.286 187.297 49.8033L185.702 96.9184C185.586 100.331 183.278 103.25 179.967 104.171L132.298 117.427C128.987 118.347 125.414 117.064 123.421 114.237L95.9003 75.2191C93.8458 72.3062 93.9492 68.4382 96.1545 65.7119L126.477 28.2243Z" fill="white"/>
</g>
<path d="M146.425 73.3926C147.961 75.0127 149.08 76.9999 149.682 79.1752H153.804V86.6199H149.682C149.081 88.7969 147.961 90.7859 146.425 92.4074L148.489 96.0789L142.216 99.8L140.157 96.1285C138.021 96.6819 135.785 96.6819 133.65 96.1285L131.587 99.8L125.314 96.0789L127.379 92.4074C125.842 90.7859 124.723 88.7969 124.122 86.6199H120V79.1777H124.122C124.723 77.0006 125.842 75.0116 127.379 73.3901L125.312 69.7211L131.583 66H131.59L133.652 69.6665C135.788 69.1131 138.024 69.1131 140.159 69.6665L142.214 66H142.219L148.492 69.7211L146.427 73.3926H146.425ZM144.146 82.8988C144.146 80.925 143.382 79.032 142.024 77.6363C140.666 76.2406 138.823 75.4566 136.902 75.4566C134.981 75.4566 133.138 76.2406 131.78 77.6363C130.421 79.032 129.658 80.925 129.658 82.8988C129.658 84.8726 130.421 86.7655 131.78 88.1612C133.138 89.5569 134.981 90.341 136.902 90.341C138.823 90.341 140.666 89.5569 142.024 88.1612C143.382 86.7655 144.146 84.8726 144.146 82.8988Z" fill="#4EC2D9"/>
<defs>
<filter id="filter0_f_203_43" x="0.1" y="0.1" width="225.8" height="162.8" filterUnits="userSpaceOnUse" color-interpolation-filters="sRGB">
<feFlood flood-opacity="0" result="BackgroundImageFix"/>
<feBlend mode="normal" in="SourceGraphic" in2="BackgroundImageFix" result="shape"/>
<feGaussianBlur stdDeviation="14.45" result="effect1_foregroundBlur_203_43"/>
</filter>
<filter id="filter1_d_203_43" x="94.4272" y="25.3049" width="92.8746" height="96.4164" filterUnits="userSpaceOnUse" color-interpolation-filters="sRGB">
<feFlood flood-opacity="0" result="BackgroundImageFix"/>
<feColorMatrix in="SourceAlpha" type="matrix" values="0 0 0 0 0 0 0 0 0 0 0 0 0 0 0 0 0 0 127 0" result="hardAlpha"/>
<feOffset dy="4"/>
<feColorMatrix type="matrix" values="0 0 0 0 0 0 0 0 0 0 0 0 0 0 0 0 0 0 0.1 0"/>
<feBlend mode="normal" in2="BackgroundImageFix" result="effect1_dropShadow_203_43"/>
<feBlend mode="normal" in="SourceGraphic" in2="effect1_dropShadow_203_43" result="shape"/>
</filter>
</defs>
</svg>
